<svg xmlns="http://www.w3.org/2000/svg" width="720" height="300" viewBox="0 0 720 300" font-family="'JetBrains Mono','SF Mono',ui-monospace,monospace">
<rect x="0.0" y="0.0" width="720.0" height="300.0" rx="0" fill="#0a0e0a" fill-opacity="1.000"/>
<text x="64.0" y="30.0" font-size="16" fill="#c9d1c9" fill-opacity="1.000" text-anchor="start" font-weight="700">recency-weighted footprint</text>
<text x="64.0" y="47.0" font-size="11" fill="#5a635a" fill-opacity="1.000" text-anchor="start" font-weight="400">every play decays with a 30-day half-life — continuous, not a snapshot</text>
<line x1="64.0" y1="244.0" x2="690.0" y2="244.0" stroke="#1c241c" stroke-width="1" stroke-opacity="1.000"/>
<text x="56.0" y="247.0" font-size="10" fill="#5a635a" fill-opacity="1.000" text-anchor="end" font-weight="400">0.00</text>
<line x1="64.0" y1="196.0" x2="690.0" y2="196.0" stroke="#1c241c" stroke-width="1" stroke-opacity="1.000"/>
<text x="56.0" y="199.0" font-size="10" fill="#5a635a" fill-opacity="1.000" text-anchor="end" font-weight="400">0.25</text>
<line x1="64.0" y1="148.0" x2="690.0" y2="148.0" stroke="#1c241c" stroke-width="1" stroke-opacity="1.000"/>
<text x="56.0" y="151.0" font-size="10" fill="#5a635a" fill-opacity="1.000" text-anchor="end" font-weight="400">0.50</text>
<line x1="64.0" y1="100.0" x2="690.0" y2="100.0" stroke="#1c241c" stroke-width="1" stroke-opacity="1.000"/>
<text x="56.0" y="103.0" font-size="10" fill="#5a635a" fill-opacity="1.000" text-anchor="end" font-weight="400">0.75</text>
<line x1="64.0" y1="52.0" x2="690.0" y2="52.0" stroke="#1c241c" stroke-width="1" stroke-opacity="1.000"/>
<text x="56.0" y="55.0" font-size="10" fill="#5a635a" fill-opacity="1.000" text-anchor="end" font-weight="400">1.00</text>
<text x="64.0" y="260.0" font-size="10" fill="#5a635a" fill-opacity="1.000" text-anchor="middle" font-weight="400">0d</text>
<text x="220.5" y="260.0" font-size="10" fill="#5a635a" fill-opacity="1.000" text-anchor="middle" font-weight="400">30d</text>
<text x="377.0" y="260.0" font-size="10" fill="#5a635a" fill-opacity="1.000" text-anchor="middle" font-weight="400">60d</text>
<text x="533.5" y="260.0" font-size="10" fill="#5a635a" fill-opacity="1.000" text-anchor="middle" font-weight="400">90d</text>
<text x="690.0" y="260.0" font-size="10" fill="#5a635a" fill-opacity="1.000" text-anchor="middle" font-weight="400">120d</text>
<polyline points="64.0,52.0 67.1,54.7 70.3,57.3 73.4,59.9 76.6,62.4 79.7,64.9 82.9,67.4 86.0,69.8 89.2,72.3 92.3,74.6 95.5,77.0 98.6,79.3 101.7,81.6 104.9,83.8 108.0,86.0 111.2,88.2 114.3,90.4 117.5,92.5 120.6,94.6 123.8,96.7 126.9,98.7 130.1,100.7 133.2,102.7 136.4,104.6 139.5,106.6 142.6,108.5 145.8,110.3 148.9,112.2 152.1,114.0 155.2,115.8 158.4,117.6 161.5,119.3 164.7,121.1 167.8,122.8 171.0,124.4 174.1,126.1 177.2,127.7 180.4,129.3 183.5,130.9 186.7,132.5 189.8,134.0 193.0,135.6 196.1,137.1 199.3,138.5 202.4,140.0 205.6,141.4 208.7,142.9 211.8,144.3 215.0,145.6 218.1,147.0 221.3,148.3 224.4,149.7 227.6,151.0 230.7,152.3 233.9,153.5 237.0,154.8 240.2,156.0 243.3,157.2 246.5,158.4 249.6,159.6 252.7,160.8 255.9,161.9 259.0,163.1 262.2,164.2 265.3,165.3 268.5,166.4 271.6,167.5 274.8,168.5 277.9,169.6 281.1,170.6 284.2,171.6 287.3,172.6 290.5,173.6 293.6,174.6 296.8,175.5 299.9,176.5 303.1,177.4 306.2,178.3 309.4,179.2 312.5,180.1 315.7,181.0 318.8,181.9 321.9,182.7 325.1,183.6 328.2,184.4 331.4,185.3 334.5,186.1 337.7,186.9 340.8,187.7 344.0,188.4 347.1,189.2 350.3,190.0 353.4,190.7 356.6,191.5 359.7,192.2 362.8,192.9 366.0,193.6 369.1,194.3 372.3,195.0 375.4,195.7 378.6,196.3 381.7,197.0 384.9,197.6 388.0,198.3 391.2,198.9 394.3,199.5 397.4,200.2 400.6,200.8 403.7,201.4 406.9,202.0 410.0,202.5 413.2,203.1 416.3,203.7 419.5,204.2 422.6,204.8 425.8,205.3 428.9,205.9 432.1,206.4 435.2,206.9 438.3,207.4 441.5,207.9 444.6,208.4 447.8,208.9 450.9,209.4 454.1,209.9 457.2,210.4 460.4,210.8 463.5,211.3 466.7,211.7 469.8,212.2 472.9,212.6 476.1,213.1 479.2,213.5 482.4,213.9 485.5,214.3 488.7,214.7 491.8,215.1 495.0,215.5 498.1,215.9 501.3,216.3 504.4,216.7 507.5,217.1 510.7,217.4 513.8,217.8 517.0,218.2 520.1,218.5 523.3,218.9 526.4,219.2 529.6,219.6 532.7,219.9 535.9,220.2 539.0,220.6 542.2,220.9 545.3,221.2 548.4,221.5 551.6,221.8 554.7,222.2 557.9,222.5 561.0,222.8 564.2,223.0 567.3,223.3 570.5,223.6 573.6,223.9 576.8,224.2 579.9,224.5 583.0,224.7 586.2,225.0 589.3,225.3 592.5,225.5 595.6,225.8 598.8,226.0 601.9,226.3 605.1,226.5 608.2,226.8 611.4,227.0 614.5,227.2 617.6,227.5 620.8,227.7 623.9,227.9 627.1,228.1 630.2,228.4 633.4,228.6 636.5,228.8 639.7,229.0 642.8,229.2 646.0,229.4 649.1,229.6 652.3,229.8 655.4,230.0 658.5,230.2 661.7,230.4 664.8,230.6 668.0,230.8 671.1,231.0 674.3,231.1 677.4,231.3 680.6,231.5 683.7,231.7 686.9,231.8 690.0,232.0" fill="none" stroke="#00FF41" stroke-width="2.4" stroke-opacity="1.000"/>
<line x1="220.5" y1="244.0" x2="220.5" y2="148.0" stroke="#00FF41" stroke-width="1" stroke-opacity="0.500" stroke-dasharray="3 3"/>
<line x1="64.0" y1="148.0" x2="220.5" y2="148.0" stroke="#00FF41" stroke-width="1" stroke-opacity="0.500" stroke-dasharray="3 3"/>
<circle cx="220.5" cy="148.0" r="3.2" fill="#00FF41" fill-opacity="1.000"/>
<text x="228.5" y="140.0" font-size="11" fill="#00FF41" fill-opacity="1.000" text-anchor="start" font-weight="400">half-life = 30d → weight 0.5</text>
<text x="377.0" y="288.0" font-size="11" fill="#5a635a" fill-opacity="1.000" text-anchor="middle" font-weight="400">age of play</text>
</svg>